<?xml version="1.0" encoding="utf-8"?>
<!-- Generator: Adobe Illustrator 25.2.1, SVG Export Plug-In . SVG Version: 6.00 Build 0)  -->
<svg version="1.1" id="Layer_1" xmlns="http://www.w3.org/2000/svg" xmlns:xlink="http://www.w3.org/1999/xlink" x="0px" y="0px"
	 viewBox="0 0 330 330" style="enable-background:new 0 0 330 330;" xml:space="preserve">
<style type="text/css">
	.st0{fill:none;stroke:#000000;stroke-width:10;stroke-linecap:round;stroke-linejoin:round;}
</style>
<g>
	<g id="XMLID_446_">
		<g>
			<path stroke="#fefefe" d="M165.7,4.9c-47.9,0-86.8,41.6-86.8,92.7v69.5c0,51.1,38.9,92.7,86.8,92.7s86.8-41.6,86.8-92.7V97.6
				C252.5,46.5,213.6,4.9,165.7,4.9z M178.4,75.6V93c0,7.5-5.7,13.6-12.7,13.6c-7,0-12.7-6.1-12.7-13.6V75.6
				c0-7.5,5.7-13.6,12.7-13.6C172.7,62,178.4,68.1,178.4,75.6z M238,167.1c0,42.6-32.5,77.2-72.3,77.2s-72.3-34.6-72.3-77.2V97.6
				c0-40,28.6-73,65.1-76.9v26.8c-11.5,3.4-20,14.6-20,28V93c0,13.3,8.5,24.6,20,28v27.6h14.5V121c11.5-3.4,20-14.6,20-28V75.6
				c0-13.3-8.5-24.6-20-28V20.8c36.5,3.9,65.1,36.9,65.1,76.9V167.1z"/>
		</g>
	</g>
	<path class="st0" d="M233.4,268.1l-67.7,51.6L98,268.1"/>
</g>
</svg>
