<?xml version="1.0" encoding="utf-8"?>
<!-- Generator: Adobe Illustrator 25.2.1, SVG Export Plug-In . SVG Version: 6.00 Build 0)  -->
<svg version="1.1" id="Layer_1" xmlns="http://www.w3.org/2000/svg" xmlns:xlink="http://www.w3.org/1999/xlink" x="0px" y="0px"
	 viewBox="0 0 330 330" style="enable-background:new 0 0 330 330;" xml:space="preserve">
<style type="text/css">
	.st0{fill:#FFFFFF;stroke:#FFFFFF;stroke-width:2;stroke-miterlimit:10;}
	.st1{fill:#FFFFFF;}
</style>
<g id="XMLID_446_">
	<g>
		<path class="st0" d="M160.7,11.6c-47.9,0-86.8,41.6-86.8,92.7v69.5c0,51.1,38.9,92.7,86.8,92.7s86.8-41.6,86.8-92.7v-69.5
			C247.5,53.2,208.6,11.6,160.7,11.6z M173.4,82.3v17.4c0,7.5-5.7,13.6-12.7,13.6S148,107.2,148,99.7V82.3c0-7.5,5.7-13.6,12.7-13.6
			S173.4,74.8,173.4,82.3z M233,173.8c0,42.6-32.5,77.2-72.3,77.2s-72.3-34.6-72.3-77.2v-69.5c0-40,28.6-73,65.1-76.9v26.8
			c-11.5,3.4-20,14.6-20,28v17.5c0,13.3,8.5,24.6,20,28v27.6H168v-27.6c11.5-3.4,20-14.6,20-28V82.3c0-13.3-8.5-24.6-20-28V27.5
			c36.5,3.9,65.1,36.9,65.1,76.9v69.4H233z"/>
	</g>
</g>
<path class="st1" d="M160.7,324.5c-3.1,0-6-0.8-8.1-2.2l-65.1-41.7c-4.4-2.9-4.3-7.6,0.3-10.4c4.5-2.8,11.5-2.8,16,0l56.9,36.5
	l56.9-36.5c4.6-2.8,11.9-2.7,16.3,0.2c4.3,2.9,4.3,7.4,0,10.2l-65.1,41.7C166.7,323.7,163.8,324.5,160.7,324.5z"/>
</svg>
