<?xml version="1.0" standalone="no"?>
<!DOCTYPE svg PUBLIC "-//W3C//DTD SVG 20010904//EN"
 "http://www.w3.org/TR/2001/REC-SVG-20010904/DTD/svg10.dtd">
<svg version="1.0" xmlns="http://www.w3.org/2000/svg"
 width="459.000000pt" height="459.000000pt" viewBox="0 0 459.000000 459.000000"
 preserveAspectRatio="xMidYMid meet">
<metadata>
Created by potrace 1.14, written by Peter Selinger 2001-2017
</metadata>
<g transform="translate(0.000000,459.000000) scale(0.100000,-0.100000)"
fill="#000000" stroke="none">
<path d="M1 3633 c0 -948 1 -957 18 -873 38 178 103 373 163 495 30 58 31 59
43 35 6 -14 91 -212 188 -440 420 -991 1069 -2512 1105 -2590 22 -47 42 -95
46 -108 l7 -22 -73 26 c-463 167 -874 491 -1148 904 -162 246 -270 504 -330
789 -18 85 -19 78 -19 -881 l-1 -968 2295 0 2295 0 -1 913 0 912 -20 -75 c-56
-219 -175 -489 -296 -675 -220 -336 -545 -625 -910 -809 -111 -55 -338 -144
-330 -128 2 4 156 341 342 749 l338 742 135 3 135 3 158 310 c87 171 159 316
159 323 0 9 -51 12 -224 12 l-223 0 -6 123 c-8 204 -63 406 -162 595 -76 145
-154 250 -275 372 -154 154 -300 254 -494 336 -417 177 -895 160 -1306 -46
-56 -28 -103 -50 -105 -48 -6 7 -305 711 -303 713 14 12 171 85 243 113 166
64 396 123 570 145 17 2 -430 5 -992 6 l-1023 1 1 -957z m1112 615 c2 -7 255
-600 562 -1318 307 -718 562 -1317 567 -1332 9 -24 -25 -104 -289 -687 -164
-363 -301 -660 -304 -661 -3 0 -312 717 -686 1593 -673 1576 -680 1592 -665
1622 8 17 41 69 74 117 156 232 379 453 628 620 88 60 105 66 113 46z m2902
-2298 l-105 -209 -137 -3 -137 -3 -376 -823 -375 -823 -40 -10 c-89 -25 -253
-49 -393 -59 -161 -11 -355 -2 -522 25 -88 15 -211 43 -218 50 -2 2 132 300
298 662 166 362 379 826 473 1031 l170 372 734 0 733 0 -105 -210z"/>
<path d="M2660 4574 c558 -85 1083 -377 1436 -798 215 -256 371 -547 454 -848
18 -62 33 -117 35 -123 2 -5 4 394 4 888 l1 897 -1012 -1 c-923 -1 -1005 -2
-918 -15z"/>
</g>
</svg>
